<?xml version="1.0" standalone="no"?>
<!DOCTYPE svg PUBLIC "-//W3C//DTD SVG 20010904//EN"
 "http://www.w3.org/TR/2001/REC-SVG-20010904/DTD/svg10.dtd">
<svg version="1.0" xmlns="http://www.w3.org/2000/svg"
 width="323.000000pt" height="323.000000pt" viewBox="0 0 323.000000 323.000000"
 preserveAspectRatio="xMidYMid meet">
<metadata>
Created by potrace 1.11, written by Peter Selinger 2001-2013
</metadata>
<g transform="translate(0.000000,323.000000) scale(0.100000,-0.100000)"
fill="#000000" stroke="none">
<path d="M1312 3068 c-5 -18 -33 -128 -63 -245 l-53 -212 -146 76 c-80 42
-178 94 -219 115 -40 22 -75 37 -78 34 -2 -2 9 -82 27 -178 41 -228 38 -215
46 -266 l7 -44 -109 6 c-60 4 -134 9 -164 11 -30 3 -95 7 -143 10 l-88 6 72
-108 c39 -59 102 -154 140 -209 l69 -102 -38 -15 c-45 -18 -282 -106 -370
-137 -34 -13 -62 -24 -62 -25 0 -2 91 -60 202 -131 112 -70 206 -130 211 -134
7 -6 -85 -100 -277 -284 -38 -37 -67 -69 -64 -71 5 -5 162 -31 248 -41 25 -2
70 -9 100 -14 30 -5 73 -12 94 -15 22 -3 41 -7 43 -8 1 -2 -38 -106 -88 -231
-51 -125 -90 -229 -88 -231 2 -2 105 25 229 61 124 35 231 63 238 61 14 -2 14
2 27 -331 3 -83 7 -152 10 -154 4 -4 73 51 265 212 92 78 117 94 125 83 5 -8
55 -107 110 -220 55 -113 103 -206 107 -206 4 -1 55 98 115 219 59 121 111
219 114 218 8 -3 333 -272 357 -295 26 -25 32 -12 33 80 1 50 2 115 4 142 1
28 4 96 6 153 2 60 8 102 14 102 11 0 124 -31 334 -91 74 -21 136 -37 138 -36
3 3 -148 388 -170 434 -6 13 -8 25 -6 28 5 4 41 11 104 19 38 5 310 45 350 52
16 3 31 6 32 8 2 2 -76 80 -172 174 -96 94 -175 173 -175 176 0 2 73 50 163
106 246 155 259 164 250 167 -4 2 -105 39 -223 84 -118 44 -221 81 -227 81 -7
1 -13 3 -13 6 0 3 61 96 135 208 74 111 135 205 135 209 0 3 -35 3 -77 0 -43
-3 -105 -8 -138 -10 -33 -3 -110 -7 -171 -11 l-111 -5 9 48 c34 184 76 439 73
442 -2 2 -50 -21 -107 -52 -57 -30 -155 -82 -219 -115 l-116 -62 -11 38 c-6
20 -34 131 -63 245 -29 114 -55 204 -59 200 -4 -4 -50 -62 -101 -128 -147
-188 -202 -255 -208 -254 -3 0 -53 61 -111 136 -58 74 -110 140 -115 146 -6 7
-27 34 -47 60 l-37 48 -9 -33z m541 -636 c542 -148 797 -775 510 -1257 -60
-101 -194 -235 -288 -291 -159 -92 -279 -123 -460 -119 -147 3 -231 22 -351
81 -377 183 -568 621 -443 1014 60 187 181 350 339 455 88 59 164 92 275 121
117 30 298 28 418 -4z"/>
<path d="M1577 2178 c-203 -21 -374 -141 -458 -323 -43 -94 -50 -124 -54 -225
-8 -167 47 -303 170 -425 221 -220 576 -220 799 0 74 73 106 126 140 226 81
241 -8 507 -216 648 -118 80 -243 113 -381 99z"/>
</g>
</svg>
